<svg xmlns="http://www.w3.org/2000/svg" xmlns:xlink="http://www.w3.org/1999/xlink" width="1920" zoomAndPan="magnify" viewBox="0 0 1440 228.95999" height="295" preserveAspectRatio="xMidYMid meet" version="1.0"><defs><g/><clipPath id="adf9d1801a"><path d="M 0.125 0 L 1439.875 0 L 1439.875 221.210938 L 0.125 221.210938 Z M 0.125 0 " clip-rule="nonzero"/></clipPath><clipPath id="eab6ea0754"><path d="M 271 0 L 1439.875 0 L 1439.875 221.210938 L 271 221.210938 Z M 271 0 " clip-rule="nonzero"/></clipPath><clipPath id="5861702ffd"><rect x="0" width="1169" y="0" height="222"/></clipPath><clipPath id="79b510a99c"><path d="M 31.058594 34.992188 L 183.679688 34.992188 L 183.679688 54.65625 L 31.058594 54.65625 Z M 31.058594 34.992188 " clip-rule="nonzero"/></clipPath><clipPath id="9c1fa409fc"><path d="M 0.0585938 0.992188 L 152.679688 0.992188 L 152.679688 20.65625 L 0.0585938 20.65625 Z M 0.0585938 0.992188 " clip-rule="nonzero"/></clipPath><clipPath id="795355e418"><rect x="0" width="153" y="0" height="21"/></clipPath><clipPath id="140b4edcbd"><path d="M 35.550781 166.183594 L 188.171875 166.183594 L 188.171875 185.851562 L 35.550781 185.851562 Z M 35.550781 166.183594 " clip-rule="nonzero"/></clipPath><clipPath id="39fa8c68f9"><path d="M 0.550781 0.183594 L 153.171875 0.183594 L 153.171875 19.851562 L 0.550781 19.851562 Z M 0.550781 0.183594 " clip-rule="nonzero"/></clipPath><clipPath id="e5348048f6"><rect x="0" width="154" y="0" height="20"/></clipPath><clipPath id="ae3e38cbcc"><path d="M 34.105469 38.648438 L 53.773438 38.648438 L 53.773438 191.269531 L 34.105469 191.269531 Z M 34.105469 38.648438 " clip-rule="nonzero"/></clipPath><clipPath id="24ade87ace"><path d="M 0.105469 0.648438 L 19.773438 0.648438 L 19.773438 153.269531 L 0.105469 153.269531 Z M 0.105469 0.648438 " clip-rule="nonzero"/></clipPath><clipPath id="280988f46c"><rect x="0" width="20" y="0" height="154"/></clipPath><clipPath id="78a0495fb6"><path d="M 165.167969 33.226562 L 184.832031 33.226562 L 184.832031 185.847656 L 165.167969 185.847656 Z M 165.167969 33.226562 " clip-rule="nonzero"/></clipPath><clipPath id="810cde5556"><path d="M 0.167969 0.226562 L 19.832031 0.226562 L 19.832031 152.847656 L 0.167969 152.847656 Z M 0.167969 0.226562 " clip-rule="nonzero"/></clipPath><clipPath id="454049af64"><rect x="0" width="20" y="0" height="153"/></clipPath><clipPath id="0addc257b1"><path d="M 131.9375 1.761719 L 218.363281 1.761719 L 218.363281 88 L 131.9375 88 Z M 131.9375 1.761719 " clip-rule="nonzero"/></clipPath><clipPath id="2015676574"><path d="M 131.9375 132.957031 L 218.363281 132.957031 L 218.363281 219.382812 L 131.9375 219.382812 Z M 131.9375 132.957031 " clip-rule="nonzero"/></clipPath><clipPath id="7c396928c0"><path d="M 0.875 132.957031 L 87 132.957031 L 87 219.382812 L 0.875 219.382812 Z M 0.875 132.957031 " clip-rule="nonzero"/></clipPath><clipPath id="a8c20050ff"><path d="M 0.875 1.761719 L 87 1.761719 L 87 88 L 0.875 88 Z M 0.875 1.761719 " clip-rule="nonzero"/></clipPath><clipPath id="1fc52c67c3"><rect x="0" width="1440" y="0" height="222"/></clipPath></defs><g clip-path="url(#adf9d1801a)"><g><g clip-path="url(#1fc52c67c3)"><g clip-path="url(#eab6ea0754)"><g transform="matrix(1, 0, 0, 1, 271, 0)"><g clip-path="url(#5861702ffd)"><g fill="#ffffff" fill-opacity="1"><g transform="translate(0.543755, 184.7027)"><g><path d="M 46.96875 0 L 15.40625 0 L 15.40625 -151.0625 L 122.90625 -151.0625 L 122.90625 -124.34375 L 46.96875 -124.34375 L 46.96875 -90.328125 L 113.453125 -90.328125 L 113.453125 -63.5 L 46.96875 -63.5 Z M 46.96875 0 "/></g></g></g><g fill="#ffffff" fill-opacity="1"><g transform="translate(126.429679, 184.7027)"><g><path d="M 40.28125 -75.53125 C 40.28125 -57.988281 44.1875 -44.796875 52 -35.953125 C 59.8125 -27.117188 69.707031 -22.703125 81.6875 -22.703125 C 93.675781 -22.703125 103.457031 -27.257812 111.03125 -36.375 C 118.601562 -45.488281 122.390625 -58.539062 122.390625 -75.53125 C 122.390625 -92.519531 118.640625 -105.566406 111.140625 -114.671875 C 103.640625 -123.785156 93.6875 -128.34375 81.28125 -128.34375 C 68.882812 -128.34375 58.953125 -123.800781 51.484375 -114.71875 C 44.015625 -105.644531 40.28125 -92.582031 40.28125 -75.53125 Z M 8.734375 -75.53125 C 8.734375 -101.425781 15.476562 -121.15625 28.96875 -134.71875 C 42.46875 -148.28125 59.835938 -155.0625 81.078125 -155.0625 C 102.316406 -155.0625 119.769531 -148.363281 133.4375 -134.96875 C 147.101562 -121.582031 153.9375 -101.769531 153.9375 -75.53125 C 153.9375 -49.90625 147.222656 -30.242188 133.796875 -16.546875 C 120.367188 -2.847656 102.898438 4 81.390625 4 C 60.898438 4 43.664062 -2.488281 29.6875 -15.46875 C 15.71875 -28.445312 8.734375 -48.46875 8.734375 -75.53125 Z M 8.734375 -75.53125 "/></g></g></g><g fill="#ffffff" fill-opacity="1"><g transform="translate(289.513391, 184.7027)"><g><path d="M 40.28125 -75.53125 C 40.28125 -57.988281 44.1875 -44.796875 52 -35.953125 C 59.8125 -27.117188 69.707031 -22.703125 81.6875 -22.703125 C 93.675781 -22.703125 103.457031 -27.257812 111.03125 -36.375 C 118.601562 -45.488281 122.390625 -58.539062 122.390625 -75.53125 C 122.390625 -92.519531 118.640625 -105.566406 111.140625 -114.671875 C 103.640625 -123.785156 93.6875 -128.34375 81.28125 -128.34375 C 68.882812 -128.34375 58.953125 -123.800781 51.484375 -114.71875 C 44.015625 -105.644531 40.28125 -92.582031 40.28125 -75.53125 Z M 8.734375 -75.53125 C 8.734375 -101.425781 15.476562 -121.15625 28.96875 -134.71875 C 42.46875 -148.28125 59.835938 -155.0625 81.078125 -155.0625 C 102.316406 -155.0625 119.769531 -148.363281 133.4375 -134.96875 C 147.101562 -121.582031 153.9375 -101.769531 153.9375 -75.53125 C 153.9375 -49.90625 147.222656 -30.242188 133.796875 -16.546875 C 120.367188 -2.847656 102.898438 4 81.390625 4 C 60.898438 4 43.664062 -2.488281 29.6875 -15.46875 C 15.71875 -28.445312 8.734375 -48.46875 8.734375 -75.53125 Z M 8.734375 -75.53125 "/></g></g></g><g fill="#ffffff" fill-opacity="1"><g transform="translate(444.376242, 184.7027)"><g><path d="M 80.25 0 L 48.703125 0 L 48.703125 -124.34375 L 3.078125 -124.34375 L 3.078125 -151.0625 L 125.984375 -151.0625 L 125.984375 -124.34375 L 80.25 -124.34375 Z M 80.25 0 "/></g></g></g><g fill="#ffffff" fill-opacity="1"><g transform="translate(573.858727, 184.7027)"><g><path d="M 137.5 -151.0625 L 137.5 0 L 105.953125 0 L 105.953125 -67.71875 L 46.96875 -67.71875 L 46.96875 0 L 15.40625 0 L 15.40625 -151.0625 L 46.96875 -151.0625 L 46.96875 -93.8125 L 105.953125 -93.8125 L 105.953125 -151.0625 Z M 137.5 -151.0625 "/></g></g></g><g fill="#ffffff" fill-opacity="1"><g transform="translate(727.180613, 184.7027)"><g><path d="M 40.28125 -75.53125 C 40.28125 -57.988281 44.1875 -44.796875 52 -35.953125 C 59.8125 -27.117188 69.707031 -22.703125 81.6875 -22.703125 C 93.675781 -22.703125 103.457031 -27.257812 111.03125 -36.375 C 118.601562 -45.488281 122.390625 -58.539062 122.390625 -75.53125 C 122.390625 -92.519531 118.640625 -105.566406 111.140625 -114.671875 C 103.640625 -123.785156 93.6875 -128.34375 81.28125 -128.34375 C 68.882812 -128.34375 58.953125 -123.800781 51.484375 -114.71875 C 44.015625 -105.644531 40.28125 -92.582031 40.28125 -75.53125 Z M 8.734375 -75.53125 C 8.734375 -101.425781 15.476562 -121.15625 28.96875 -134.71875 C 42.46875 -148.28125 59.835938 -155.0625 81.078125 -155.0625 C 102.316406 -155.0625 119.769531 -148.363281 133.4375 -134.96875 C 147.101562 -121.582031 153.9375 -101.769531 153.9375 -75.53125 C 153.9375 -49.90625 147.222656 -30.242188 133.796875 -16.546875 C 120.367188 -2.847656 102.898438 4 81.390625 4 C 60.898438 4 43.664062 -2.488281 29.6875 -15.46875 C 15.71875 -28.445312 8.734375 -48.46875 8.734375 -75.53125 Z M 8.734375 -75.53125 "/></g></g></g><g fill="#ffffff" fill-opacity="1"><g transform="translate(890.264324, 184.7027)"><g><path d="M 46.96875 -27.328125 L 122.078125 -27.328125 L 122.078125 0 L 15.40625 0 L 15.40625 -151.0625 L 46.96875 -151.0625 Z M 46.96875 -27.328125 "/></g></g></g><g fill="#ffffff" fill-opacity="1"><g transform="translate(1016.355859, 184.7027)"><g><path d="M 46.34375 -26.09375 L 77.0625 -26.09375 C 87.894531 -26.09375 96.320312 -30.613281 102.34375 -39.65625 C 108.375 -48.707031 111.390625 -61.109375 111.390625 -76.859375 C 111.390625 -93.097656 108.613281 -105.191406 103.0625 -113.140625 C 97.519531 -121.085938 89.0625 -125.0625 77.6875 -125.0625 L 46.34375 -125.0625 Z M 15.40625 -151.0625 L 82.109375 -151.0625 C 102.523438 -151.0625 117.867188 -144.429688 128.140625 -131.171875 C 138.421875 -117.921875 143.5625 -100.570312 143.5625 -79.125 C 143.5625 -55.425781 138.097656 -36.3125 127.171875 -21.78125 C 116.242188 -7.257812 100.8125 0 80.875 0 L 15.40625 0 Z M 15.40625 -151.0625 "/></g></g></g></g></g></g><g clip-path="url(#79b510a99c)"><g transform="matrix(1, 0, 0, 1, 31, 34)"><g clip-path="url(#795355e418)"><g clip-path="url(#9c1fa409fc)"><path fill="#f6590b" d="M 0.0585938 0.992188 L 152.707031 0.992188 L 152.707031 20.65625 L 0.0585938 20.65625 Z M 0.0585938 0.992188 " fill-opacity="1" fill-rule="nonzero"/></g></g></g></g><g clip-path="url(#140b4edcbd)"><g transform="matrix(1, 0, 0, 1, 35, 166)"><g clip-path="url(#e5348048f6)"><g clip-path="url(#39fa8c68f9)"><path fill="#f6590b" d="M 0.550781 0.183594 L 153.199219 0.183594 L 153.199219 19.851562 L 0.550781 19.851562 Z M 0.550781 0.183594 " fill-opacity="1" fill-rule="nonzero"/></g></g></g></g><g clip-path="url(#ae3e38cbcc)"><g transform="matrix(1, 0, 0, 1, 34, 38)"><g clip-path="url(#280988f46c)"><g clip-path="url(#24ade87ace)"><path fill="#f6590b" d="M 0.105469 153.269531 L 0.105469 0.625 L 19.773438 0.625 L 19.773438 153.269531 Z M 0.105469 153.269531 " fill-opacity="1" fill-rule="nonzero"/></g></g></g></g><g clip-path="url(#78a0495fb6)"><g transform="matrix(1, 0, 0, 1, 165, 33)"><g clip-path="url(#454049af64)"><g clip-path="url(#810cde5556)"><path fill="#f6590b" d="M 0.167969 152.847656 L 0.167969 0.199219 L 19.832031 0.199219 L 19.832031 152.847656 Z M 0.167969 152.847656 " fill-opacity="1" fill-rule="nonzero"/></g></g></g></g><g clip-path="url(#0addc257b1)"><path fill="#f6590b" d="M 174.996094 1.761719 C 151.207031 1.761719 131.9375 21.03125 131.9375 44.824219 C 131.9375 68.613281 151.207031 87.882812 174.996094 87.882812 C 198.789062 87.882812 218.058594 68.613281 218.058594 44.824219 C 218.058594 21.03125 198.789062 1.761719 174.996094 1.761719 Z M 174.996094 1.761719 " fill-opacity="1" fill-rule="nonzero"/></g><g clip-path="url(#2015676574)"><path fill="#f6590b" d="M 174.996094 132.957031 C 151.207031 132.957031 131.9375 152.226562 131.9375 176.015625 C 131.9375 199.808594 151.207031 219.078125 174.996094 219.078125 C 198.789062 219.078125 218.058594 199.808594 218.058594 176.015625 C 218.058594 152.226562 198.789062 132.957031 174.996094 132.957031 Z M 174.996094 132.957031 " fill-opacity="1" fill-rule="nonzero"/></g><g clip-path="url(#7c396928c0)"><path fill="#f6590b" d="M 43.9375 132.957031 C 20.144531 132.957031 0.875 152.226562 0.875 176.015625 C 0.875 199.808594 20.144531 219.078125 43.9375 219.078125 C 67.726562 219.078125 86.996094 199.808594 86.996094 176.015625 C 86.996094 152.226562 67.726562 132.957031 43.9375 132.957031 Z M 43.9375 132.957031 " fill-opacity="1" fill-rule="nonzero"/></g><g clip-path="url(#a8c20050ff)"><path fill="#f6590b" d="M 43.9375 1.761719 C 20.144531 1.761719 0.875 21.03125 0.875 44.824219 C 0.875 68.613281 20.144531 87.882812 43.9375 87.882812 C 67.726562 87.882812 86.996094 68.613281 86.996094 44.824219 C 86.996094 21.03125 67.726562 1.761719 43.9375 1.761719 Z M 43.9375 1.761719 " fill-opacity="1" fill-rule="nonzero"/></g></g></g></g></svg>