<svg xmlns="http://www.w3.org/2000/svg" xmlns:xlink="http://www.w3.org/1999/xlink" width="192" zoomAndPan="magnify" viewBox="0 0 144 143.999998" height="192" preserveAspectRatio="xMidYMid meet" version="1.0"><defs><clipPath id="962194402c"><path d="M 20 22.019531 L 121.132812 22.019531 L 121.132812 35.050781 L 20 35.050781 Z M 20 22.019531 " clip-rule="nonzero"/></clipPath><clipPath id="fdbc67cdd1"><path d="M 0 0.0195312 L 101.132812 0.0195312 L 101.132812 13.050781 L 0 13.050781 Z M 0 0.0195312 " clip-rule="nonzero"/></clipPath><clipPath id="62d6f107d0"><rect x="0" width="102" y="0" height="14"/></clipPath><clipPath id="bb343eeb3d"><path d="M 22.976562 108.949219 L 124.109375 108.949219 L 124.109375 121.980469 L 22.976562 121.980469 Z M 22.976562 108.949219 " clip-rule="nonzero"/></clipPath><clipPath id="9273d2b694"><path d="M 0.976562 0.949219 L 102.109375 0.949219 L 102.109375 13.980469 L 0.976562 13.980469 Z M 0.976562 0.949219 " clip-rule="nonzero"/></clipPath><clipPath id="0fa2381bde"><rect x="0" width="103" y="0" height="14"/></clipPath><clipPath id="7c24ae73c0"><path d="M 22.015625 24.441406 L 35.046875 24.441406 L 35.046875 125.570312 L 22.015625 125.570312 Z M 22.015625 24.441406 " clip-rule="nonzero"/></clipPath><clipPath id="6241be8888"><path d="M 0.015625 0.441406 L 13.046875 0.441406 L 13.046875 101.570312 L 0.015625 101.570312 Z M 0.015625 0.441406 " clip-rule="nonzero"/></clipPath><clipPath id="b020c1e577"><rect x="0" width="14" y="0" height="102"/></clipPath><clipPath id="09db855299"><path d="M 108.859375 20.84375 L 121.890625 20.84375 L 121.890625 121.976562 L 108.859375 121.976562 Z M 108.859375 20.84375 " clip-rule="nonzero"/></clipPath><clipPath id="06b6f0e0ca"><path d="M 0.859375 0.84375 L 13.890625 0.84375 L 13.890625 101.976562 L 0.859375 101.976562 Z M 0.859375 0.84375 " clip-rule="nonzero"/></clipPath><clipPath id="1edf492d6e"><rect x="0" width="14" y="0" height="102"/></clipPath><clipPath id="c7d5bc6c3a"><path d="M 86.84375 0 L 143.984375 0 L 143.984375 57.140625 L 86.84375 57.140625 Z M 86.84375 0 " clip-rule="nonzero"/></clipPath><clipPath id="a28e78cecd"><path d="M 86.84375 86.933594 L 143.984375 86.933594 L 143.984375 144 L 86.84375 144 Z M 86.84375 86.933594 " clip-rule="nonzero"/></clipPath><clipPath id="84928452f8"><path d="M 0 86.933594 L 57.140625 86.933594 L 57.140625 144 L 0 144 Z M 0 86.933594 " clip-rule="nonzero"/></clipPath><clipPath id="de57648d61"><path d="M 0 0 L 57.140625 0 L 57.140625 57.140625 L 0 57.140625 Z M 0 0 " clip-rule="nonzero"/></clipPath><clipPath id="d9483b2463"><rect x="0" width="144" y="0" height="144"/></clipPath></defs><g transform="matrix(1, 0, 0, 1, 0, -0.000000000000008916)"><g clip-path="url(#d9483b2463)"><g clip-path="url(#962194402c)"><g transform="matrix(1, 0, 0, 1, 20, 22)"><g clip-path="url(#62d6f107d0)"><g clip-path="url(#fdbc67cdd1)"><path fill="#f6590b" d="M 0 0.0195312 L 101.148438 0.0195312 L 101.148438 13.050781 L 0 13.050781 Z M 0 0.0195312 " fill-opacity="1" fill-rule="nonzero"/></g></g></g></g><g clip-path="url(#bb343eeb3d)"><g transform="matrix(1, 0, 0, 1, 22, 108)"><g clip-path="url(#0fa2381bde)"><g clip-path="url(#9273d2b694)"><path fill="#f6590b" d="M 0.976562 0.949219 L 102.125 0.949219 L 102.125 13.980469 L 0.976562 13.980469 Z M 0.976562 0.949219 " fill-opacity="1" fill-rule="nonzero"/></g></g></g></g><g clip-path="url(#7c24ae73c0)"><g transform="matrix(1, 0, 0, 1, 22, 24)"><g clip-path="url(#b020c1e577)"><g clip-path="url(#6241be8888)"><path fill="#f6590b" d="M 0.015625 101.570312 L 0.015625 0.421875 L 13.046875 0.421875 L 13.046875 101.570312 Z M 0.015625 101.570312 " fill-opacity="1" fill-rule="nonzero"/></g></g></g></g><g clip-path="url(#09db855299)"><g transform="matrix(1, 0, 0, 1, 108, 20)"><g clip-path="url(#1edf492d6e)"><g clip-path="url(#06b6f0e0ca)"><path fill="#f6590b" d="M 0.859375 101.976562 L 0.859375 0.828125 L 13.890625 0.828125 L 13.890625 101.976562 Z M 0.859375 101.976562 " fill-opacity="1" fill-rule="nonzero"/></g></g></g></g><g clip-path="url(#c7d5bc6c3a)"><path fill="#f6590b" d="M 115.375 0 C 99.613281 0 86.84375 12.769531 86.84375 28.53125 C 86.84375 44.296875 99.613281 57.0625 115.375 57.0625 C 131.140625 57.0625 143.910156 44.296875 143.910156 28.53125 C 143.910156 12.769531 131.140625 0 115.375 0 Z M 115.375 0 " fill-opacity="1" fill-rule="nonzero"/></g><g clip-path="url(#a28e78cecd)"><path fill="#f6590b" d="M 115.375 86.933594 C 99.613281 86.933594 86.84375 99.699219 86.84375 115.464844 C 86.84375 131.226562 99.613281 143.996094 115.375 143.996094 C 131.140625 143.996094 143.910156 131.226562 143.910156 115.464844 C 143.910156 99.699219 131.140625 86.933594 115.375 86.933594 Z M 115.375 86.933594 " fill-opacity="1" fill-rule="nonzero"/></g><g clip-path="url(#84928452f8)"><path fill="#f6590b" d="M 28.53125 86.933594 C 12.769531 86.933594 0 99.699219 0 115.464844 C 0 131.226562 12.769531 143.996094 28.53125 143.996094 C 44.296875 143.996094 57.0625 131.226562 57.0625 115.464844 C 57.0625 99.699219 44.296875 86.933594 28.53125 86.933594 Z M 28.53125 86.933594 " fill-opacity="1" fill-rule="nonzero"/></g><g clip-path="url(#de57648d61)"><path fill="#f6590b" d="M 28.53125 0 C 12.769531 0 0 12.769531 0 28.53125 C 0 44.296875 12.769531 57.0625 28.53125 57.0625 C 44.296875 57.0625 57.0625 44.296875 57.0625 28.53125 C 57.0625 12.769531 44.296875 0 28.53125 0 Z M 28.53125 0 " fill-opacity="1" fill-rule="nonzero"/></g></g></g></svg>